<svg width="510" height="510" viewBox="0 0 510 510" fill="none" xmlns="http://www.w3.org/2000/svg">
<rect width="510" height="510" rx="110" fill="url(#paint0_linear_108_33)"/>
<path d="M237.508 288.735C236.917 290.995 237.406 293.401 238.83 295.25C240.254 297.099 242.452 298.182 244.782 298.182H332.075C334.399 298.182 336.592 299.259 338.017 301.1C339.441 302.941 339.936 305.339 339.358 307.596L329.943 344.337C329.09 347.67 326.093 350 322.661 350H142.519C140.195 350 138.002 348.923 136.578 347.082C135.154 345.241 134.658 342.843 135.237 340.586L162.353 234.754C163.207 231.421 166.204 229.091 169.636 229.091H243.05C245.374 229.091 247.567 230.168 248.991 232.009C250.415 233.85 250.911 236.248 250.332 238.505L239.478 280.869L239.483 280.897L239.509 280.909L239.534 280.922L239.54 280.949L237.508 288.735ZM270.533 229.091L259.667 271.495C259.089 273.752 259.584 276.15 261.009 277.991C262.433 279.832 264.626 280.909 266.95 280.909H340.364C343.796 280.909 346.792 278.579 347.646 275.246L374.764 169.414C375.342 167.157 374.847 164.76 373.422 162.919C371.998 161.077 369.805 160 367.481 160H187.339C183.907 160 180.91 162.33 180.056 165.663L170.642 202.404C170.064 204.661 170.559 207.059 171.984 208.9C173.408 210.741 175.601 211.818 177.925 211.818H265.301C267.631 211.818 269.829 212.901 271.253 214.75C272.677 216.599 273.165 219.005 272.575 221.265L270.533 229.091Z" fill="white"/>
<defs>
<linearGradient id="paint0_linear_108_33" x1="1.18225e-05" y1="5.49999" x2="290" y2="323" gradientUnits="userSpaceOnUse">
<stop/>
<stop offset="1" stop-color="#151515"/>
</linearGradient>
</defs>
</svg>
