<svg width="980" height="250" viewBox="0 0 980 250" fill="none" xmlns="http://www.w3.org/2000/svg">
<rect width="250" height="250" rx="53.9216" fill="url(#paint0_linear_108_39)"/>
<path d="M116.425 141.537C116.136 142.644 116.375 143.824 117.073 144.73C117.771 145.637 118.849 146.168 119.991 146.168H162.782C163.921 146.168 164.996 146.696 165.694 147.598C166.393 148.501 166.635 149.676 166.352 150.782L161.737 168.793C161.318 170.426 159.85 171.569 158.167 171.569H69.8624C68.7233 171.569 67.6481 171.041 66.9499 170.138C66.2518 169.236 66.009 168.06 66.2925 166.954L79.585 115.075C80.0036 113.442 81.4727 112.3 83.1551 112.3H119.142C120.281 112.3 121.356 112.828 122.055 113.73C122.753 114.633 122.996 115.808 122.712 116.914L117.391 137.681L117.394 137.694L117.406 137.701L117.419 137.707L117.421 137.72L116.425 141.537ZM132.614 112.3L127.288 133.086C127.005 134.192 127.247 135.367 127.946 136.27C128.644 137.172 129.719 137.701 130.858 137.701H166.845C168.527 137.701 169.996 136.558 170.415 134.925L183.708 83.0462C183.991 81.9399 183.748 80.7646 183.05 79.8621C182.352 78.9595 181.277 78.4314 180.138 78.4314H91.833C90.1506 78.4314 88.6816 79.5736 88.263 81.2073L83.6483 99.2177C83.3648 100.324 83.6075 101.499 84.3057 102.402C85.0039 103.304 86.0791 103.833 87.2182 103.833H130.049C131.192 103.833 132.269 104.363 132.967 105.27C133.665 106.176 133.904 107.356 133.615 108.463L132.614 112.3Z" fill="white"/>
<path d="M392.235 146.77L418.854 82.7534H456.295V170.287H433.245V103.878L404.404 170.287H379.891L351.108 104.17V170.287H328V82.7534H365.5L392.235 146.77Z" fill="black"/>
<path d="M509.715 172.213C501.251 172.213 493.783 170.754 487.308 167.836C480.834 164.879 475.803 160.736 472.215 155.406C468.666 150.076 466.891 143.93 466.891 136.966C466.891 130.002 468.666 123.855 472.215 118.525C475.803 113.157 480.834 109.013 487.308 106.096C493.783 103.139 501.251 101.661 509.715 101.661C518.178 101.661 525.647 103.139 532.121 106.096C538.595 109.013 543.607 113.157 547.156 118.525C550.744 123.855 552.538 130.002 552.538 136.966C552.538 143.93 550.744 150.076 547.156 155.406C543.607 160.736 538.595 164.879 532.121 167.836C525.647 170.754 518.178 172.213 509.715 172.213ZM509.715 154.473C513.576 154.473 516.91 153.772 519.719 152.372C522.527 150.971 524.672 148.968 526.154 146.361C527.636 143.716 528.377 140.584 528.377 136.966C528.377 133.348 527.616 130.216 526.095 127.571C524.613 124.925 522.468 122.902 519.66 121.502C516.891 120.101 513.576 119.401 509.715 119.401C505.854 119.401 502.519 120.101 499.711 121.502C496.903 122.902 494.738 124.925 493.217 127.571C491.735 130.216 490.994 133.348 490.994 136.966C490.994 140.584 491.735 143.716 493.217 146.361C494.738 148.968 496.903 150.971 499.711 152.372C502.519 153.772 505.854 154.473 509.715 154.473Z" fill="black"/>
<path d="M650.707 80.4191L643.803 135.157L648.015 170.287H623.269L621.572 156.165C618.335 161.261 614.24 165.21 609.287 168.011C604.373 170.812 598.874 172.213 592.789 172.213C586.315 172.213 580.563 170.754 575.531 167.836C570.539 164.879 566.659 160.736 563.889 155.406C561.12 150.037 559.736 143.891 559.736 136.966C559.736 130.002 561.12 123.855 563.889 118.525C566.659 113.157 570.539 109.013 575.531 106.096C580.563 103.139 586.315 101.661 592.789 101.661C598.796 101.661 604.256 103.022 609.17 105.746C614.123 108.469 618.218 112.32 621.455 117.3L625.902 80.4191H650.707ZM599.985 153.947C603.144 153.947 606.167 153.228 609.053 151.788C611.978 150.31 614.533 148.287 616.717 145.719C618.94 143.152 620.597 140.234 621.69 136.966C620.597 133.698 618.94 130.78 616.717 128.212C614.533 125.606 611.978 123.583 609.053 122.143C606.167 120.665 603.144 119.926 599.985 119.926C596.865 119.926 594.077 120.665 591.619 122.143C589.201 123.583 587.31 125.606 585.945 128.212C584.58 130.78 583.897 133.698 583.897 136.966C583.897 140.234 584.58 143.152 585.945 145.719C587.31 148.287 589.201 150.31 591.619 151.788C594.077 153.228 596.865 153.947 599.985 153.947Z" fill="black"/>
<path d="M740.229 170.287H716.36L714.079 156.515C711.232 161.611 707.566 165.502 703.08 168.186C698.595 170.832 693.623 172.154 688.162 172.154C682 172.154 676.696 170.89 672.25 168.361C667.804 165.794 664.411 162.156 662.071 157.449C659.73 152.741 658.56 147.217 658.56 140.876V103.586H682.488V137.433C682.488 142.373 683.677 146.167 686.056 148.812C688.474 151.419 691.926 152.722 696.411 152.722C701.364 152.722 705.187 151.244 707.878 148.287C710.608 145.291 711.973 141.09 711.973 135.682V103.586H735.9V147.295L740.229 170.287Z" fill="black"/>
<path d="M750.39 170.287V80.4191H774.318V170.287H750.39Z" fill="black"/>
<path d="M787.525 170.287V102.594L799.46 104.929L811.453 102.594V170.287H787.525ZM799.46 97.1672C796.691 97.1672 794.253 96.7004 792.147 95.7667C790.041 94.7941 788.403 93.4325 787.233 91.6818C786.063 89.9311 785.478 87.8887 785.478 85.5544C785.478 83.2202 786.063 81.1972 787.233 79.4854C788.403 77.7348 790.041 76.3926 792.147 75.4589C794.253 74.4863 796.691 74 799.46 74C802.229 74 804.667 74.4863 806.773 75.4589C808.879 76.3926 810.497 77.7348 811.628 79.4854C812.798 81.1972 813.383 83.2202 813.383 85.5544C813.383 87.8887 812.798 89.9311 811.628 91.6818C810.497 93.4325 808.879 94.7941 806.773 95.7667C804.667 96.7004 802.229 97.1672 799.46 97.1672Z" fill="black"/>
<path d="M894.453 120.159L852.508 153.13H894.688V170.287H822.496V153.714L864.5 120.743H822.847V103.586H894.453V120.159Z" fill="black"/>
<path d="M927.231 143.735C928.869 147.275 931.638 149.999 935.538 151.905C939.439 153.772 944.353 154.706 950.281 154.706C955.195 154.706 960.09 154.064 964.965 152.78C969.84 151.496 974.286 149.668 978.303 147.295V162.467C973.623 165.618 968.339 168.031 962.449 169.703C956.56 171.376 950.242 172.213 943.495 172.213C935.421 172.213 928.187 170.734 921.79 167.778C915.394 164.782 910.383 160.6 906.755 155.231C903.128 149.862 901.315 143.696 901.315 136.732C901.315 129.885 903.05 123.797 906.521 118.467C910.031 113.137 914.868 109.013 921.03 106.096C927.192 103.139 934.134 101.661 941.857 101.661C949.696 101.661 956.482 103.392 962.215 106.854C967.949 110.278 972.336 115.16 975.378 121.502C978.459 127.804 980 135.215 980 143.735H927.231ZM942.383 118.467C938.288 118.467 934.817 119.459 931.97 121.443C929.162 123.388 927.231 126.034 926.178 129.38H957.769C956.677 125.878 954.805 123.194 952.153 121.326C949.54 119.42 946.283 118.467 942.383 118.467Z" fill="black"/>
<defs>
<linearGradient id="paint0_linear_108_39" x1="5.79536e-06" y1="2.69607" x2="142.157" y2="158.333" gradientUnits="userSpaceOnUse">
<stop/>
<stop offset="1" stop-color="#151515"/>
</linearGradient>
</defs>
</svg>
